<svg xmlns="http://www.w3.org/2000/svg" viewBox="0 0 200 220" width="200" height="220">
  <!-- Face -->
  <ellipse cx="100" cy="105" rx="60" ry="70" fill="#f5e6d0" stroke="#3a2e1f" stroke-width="2"/>
  <!-- Balding forehead highlight -->
  <ellipse cx="100" cy="60" rx="40" ry="20" fill="#f8edd8" stroke="none"/>
  <!-- Long hair left -->
  <path d="M40 95 Q25 100 28 140 Q30 165 45 175 Q38 150 42 120 Z" fill="#8a7560" stroke="#3a2e1f" stroke-width="1.5"/>
  <path d="M45 90 Q30 95 32 135 Q34 158 48 168 Q42 145 46 115 Z" fill="#9a8570" stroke="none"/>
  <!-- Long hair right -->
  <path d="M160 95 Q175 100 172 140 Q170 165 155 175 Q162 150 158 120 Z" fill="#8a7560" stroke="#3a2e1f" stroke-width="1.5"/>
  <path d="M155 90 Q170 95 168 135 Q166 158 152 168 Q158 145 154 115 Z" fill="#9a8570" stroke="none"/>
  <!-- Hair wisps on top -->
  <path d="M65 50 Q70 30 85 38" fill="none" stroke="#8a7560" stroke-width="2" stroke-linecap="round"/>
  <path d="M135 50 Q130 30 115 38" fill="none" stroke="#8a7560" stroke-width="2" stroke-linecap="round"/>
  <path d="M80 42 Q90 25 100 35" fill="none" stroke="#8a7560" stroke-width="2" stroke-linecap="round"/>
  <path d="M120 42 Q110 25 100 35" fill="none" stroke="#8a7560" stroke-width="2" stroke-linecap="round"/>
  <!-- Eyebrows - raised knowingly -->
  <path d="M70 78 Q80 72 92 77" fill="none" stroke="#3a2e1f" stroke-width="2" stroke-linecap="round"/>
  <path d="M108 77 Q120 72 130 78" fill="none" stroke="#3a2e1f" stroke-width="2" stroke-linecap="round"/>
  <!-- Eyes - wise look -->
  <ellipse cx="82" cy="90" rx="8" ry="6" fill="#fff" stroke="#3a2e1f" stroke-width="1.5"/>
  <circle cx="84" cy="90" r="3.5" fill="#3a2e1f"/>
  <circle cx="85" cy="89" r="1" fill="#fff"/>
  <ellipse cx="118" cy="90" rx="8" ry="6" fill="#fff" stroke="#3a2e1f" stroke-width="1.5"/>
  <circle cx="119" cy="90" r="3.5" fill="#3a2e1f"/>
  <circle cx="120" cy="89" r="1" fill="#fff"/>
  <!-- Glasses -->
  <circle cx="82" cy="90" r="14" fill="none" stroke="#3a2e1f" stroke-width="2"/>
  <circle cx="118" cy="90" r="14" fill="none" stroke="#3a2e1f" stroke-width="2"/>
  <line x1="96" y1="90" x2="104" y2="90" stroke="#3a2e1f" stroke-width="2"/>
  <line x1="68" y1="88" x2="55" y2="82" stroke="#3a2e1f" stroke-width="2"/>
  <line x1="132" y1="88" x2="145" y2="82" stroke="#3a2e1f" stroke-width="2"/>
  <!-- Nose -->
  <path d="M100 95 Q104 108 100 115 Q96 115 93 112" fill="none" stroke="#3a2e1f" stroke-width="1.5" stroke-linecap="round"/>
  <!-- Knowing smirk -->
  <path d="M82 128 Q92 140 105 138 Q115 136 122 130" fill="none" stroke="#3a2e1f" stroke-width="2" stroke-linecap="round"/>
  <path d="M86 130 Q95 135 104 134 Q112 133 118 130" fill="#fff" stroke="none"/>
  <!-- Cheeks -->
  <circle cx="68" cy="118" r="8" fill="#e8c0b0" opacity="0.5"/>
  <circle cx="132" cy="118" r="8" fill="#e8c0b0" opacity="0.5"/>
  <!-- Chin -->
  <path d="M85 155 Q100 170 115 155" fill="none" stroke="#d4c4ad" stroke-width="1"/>
  <!-- Collar / coat -->
  <path d="M55 170 Q60 160 75 158 Q88 156 100 160 Q112 156 125 158 Q140 160 145 170 Q148 180 150 195 L50 195 Q52 180 55 170 Z" fill="#2c3e6b" stroke="#1e2d52" stroke-width="1.5"/>
  <!-- Collar white -->
  <path d="M80 158 Q90 168 100 165 Q110 168 120 158 L118 170 Q110 175 100 172 Q90 175 82 170 Z" fill="#f5f0e8" stroke="#c9bda8" stroke-width="1"/>
  <!-- Buttons -->
  <circle cx="100" cy="182" r="2.5" fill="#c9bda8" stroke="#1e2d52" stroke-width="1"/>
  <circle cx="100" cy="193" r="2.5" fill="#c9bda8" stroke="#1e2d52" stroke-width="1"/>
  <!-- Quill pen held up by right hand -->
  <path d="M148 175 Q155 165 160 150 Q162 140 158 130" fill="none" stroke="#3a2e1f" stroke-width="2" stroke-linecap="round"/>
  <!-- Quill feather -->
  <path d="M158 130 Q165 115 170 95 Q172 85 168 80" fill="none" stroke="#c9a84c" stroke-width="2.5" stroke-linecap="round"/>
  <path d="M168 80 Q175 75 178 68" fill="none" stroke="#c9a84c" stroke-width="1.5" stroke-linecap="round"/>
  <path d="M168 80 Q162 78 158 72" fill="none" stroke="#c9a84c" stroke-width="1" stroke-linecap="round"/>
  <path d="M168 80 Q172 76 176 72" fill="none" stroke="#c9a84c" stroke-width="1" stroke-linecap="round"/>
  <!-- Hand holding quill -->
  <ellipse cx="150" cy="170" rx="8" ry="6" fill="#f5e6d0" stroke="#3a2e1f" stroke-width="1.5"/>
  <!-- Thought sparkles -->
  <circle cx="28" cy="55" r="2" fill="#c9a84c" opacity="0.7"/>
  <circle cx="18" cy="42" r="1.5" fill="#c9a84c" opacity="0.5"/>
  <circle cx="35" cy="35" r="1.5" fill="#c9a84c" opacity="0.6"/>
  <circle cx="170" cy="50" r="2" fill="#c9a84c" opacity="0.7"/>
  <circle cx="180" cy="38" r="1.5" fill="#c9a84c" opacity="0.5"/>
  <circle cx="165" cy="32" r="1.5" fill="#c9a84c" opacity="0.6"/>
</svg>
